# xmcd
# Track frame offsets:
# 150
# 14478
# 28110
# 43730
# 56060
# 76794
# 92464
# 106793
# 119191
# 138481
# 154144
# 166511
# 180015
# 197253
# 209103
# 224777
# 239328
# 252810
# 265774
# 278983
# 291454
# 304549
# 322042
# 335544
#
# Disc length: 4664 seconds
# Revision: 0
# Processed by: cddbd v1.5.2PL0 Copyright (c) Steve Scherf et al.
# Submitted via: VisiTrax 2.11.3.279 - For more info visit www.synapsa.com
#
DISCID=5e123618
DTITLE=Bobby Bares - As Is-Ain't Got Nothin' To Lose
DYEAR=1981
DGENRE=Country
TTITLE0=Dollar Pool Fool
TTITLE1=Learning To Live Again
TTITLE2=Call Me The Breeze
TTITLE3=Take Me As I Am (Or Let Me Go)
TTITLE4=Let Him Roll
TTITLE5=New Cut Road
TTITLE6=She Is Gone
TTITLE7=Dropping Out Of Sight
TTITLE8=Summer Wages
TTITLE9=White Freight Liner Blues
TTITLE10=If You Ain't Got Nothin' (You Ain't Got Nothin' To Lose)
TTITLE11=(I'm Not) A Candle In The Wind
TTITLE12=(They Covered Up) The Old Swimmin' Hole
TTITLE13=Isn't That Just Like Love?
TTITLE14=Goodnight Irene
TTITLE15=Golden Memories
TTITLE16=I've Been Rained On Too
TTITLE17=Cold Day In Hell
TTITLE18=So Good To Be So Bad
TTITLE19=Praise The Lord And Send Me The Money
TTITLE20=Three-Legged Man
TTITLE21=Drinkin' From The Bottle
TTITLE22=Stacy Brown Got Two
TTITLE23=Time
EXTD=
EXTT0=
EXTT1=
EXTT2=
EXTT3=
EXTT4=
EXTT5=
EXTT6=
EXTT7=
EXTT8=
EXTT9=
EXTT10=
EXTT11=
EXTT12=
EXTT13=
EXTT14=
EXTT15=
EXTT16=
EXTT17=
EXTT18=
EXTT19=
EXTT20=
EXTT21=
EXTT22=
EXTT23=
PLAYORDER=
